# xmcd
#
# Track frame offsets:
#	150
#	11829
#	27179
#	36217
#	45776
#	55021
#	63549
#	77327
#	87449
#	97697
#	110558
#	122014
#	130946
#	143777
#	155848
#	168526
#	179778
#	190842
#	204513
#	213654
#	225830
#	234120
#	246906
#	258367
#	271794
#	284753
#	294810
#	305521
#	317402
#	329015
#
# Disc length: 4520 seconds
#
# Revision: 1
# Processed by: cddbd v1.5.2PL0 Copyright (c) Steve Scherf et al.
# Submitted via: audiograbber 1.83.01
#
DISCID=a311a61e
DTITLE=Martin, Bobbi - For The Love Of Him
DYEAR=1900
DGENRE=Country
TTITLE0=For The Love Of Him
TTITLE1=Harper Valley PTA
TTITLE2=Wooden Heart
TTITLE3=Tennessee Waltz
TTITLE4=I Fall To Pieces
TTITLE5=Your Cheatin' Heart
TTITLE6=Give A Woman Love
TTITLE7=Lovesick Blues
TTITLE8=Crazy Arms
TTITLE9=She'll Have To Go
TTITLE10=Only You (And You Alone)
TTITLE11=Oh Lonesome Me
TTITLE12=I Love You So
TTITLE13=Don't Forget I Still Love You
TTITLE14=I Can't Stop Thinking Of You
TTITLE15=Forgive Me
TTITLE16=Just One Time
TTITLE17=A Girl's Prayer
TTITLE18=I Think Of You
TTITLE19=I Walk The Line
TTITLE20="A" You're Adorable
TTITLE21=Just As Much As Ever
TTITLE22=I'm So Lonesome I Could Cry
TTITLE23=Why Should I Cry
TTITLE24=It's A Sin To Tell A Lie
TTITLE25=Anytime
TTITLE26=How Long
TTITLE27=I'll Never Stop Loving You
TTITLE28=Tired And Blue
TTITLE29=Auf Wiedersehn - Goodbye
EXTD=
EXTT0=
EXTT1=
EXTT2=
EXTT3=
EXTT4=
EXTT5=
EXTT6=
EXTT7=
EXTT8=
EXTT9=
EXTT10=
EXTT11=
EXTT12=
EXTT13=
EXTT14=
EXTT15=
EXTT16=
EXTT17=
EXTT18=
EXTT19=
EXTT20=
EXTT21=
EXTT22=
EXTT23=
EXTT24=
EXTT25=
EXTT26=
EXTT27=
EXTT28=
EXTT29=
PLAYORDER=
